<?xml version="1.0" encoding="UTF-8"?>
<svg id="Layer_1" xmlns="http://www.w3.org/2000/svg" version="1.1" viewBox="0 0 209 186.2">
  <!-- Generator: Adobe Illustrator 29.0.0, SVG Export Plug-In . SVG Version: 2.1.0 Build 186)  -->
  <defs>
    <style>
      .st0 {
        fill: #eeeced;
      }

      .st1 {
        fill: #fff;
      }

      .st2 {
        fill: #f7941d;
      }
    </style>
  </defs>
  <rect class="st0" x="-12.2" y="-17.6" width="232.9" height="216.3"/>
  <g>
    <ellipse class="st1" cx="104.5" cy="93.1" rx="70.1" ry="69.6"/>
    <g>
      <path class="st2" d="M179.5,88.4v9.4c-.5,1.7-.4,3.6-.6,5.4-4.3,32.3-29.9,58.6-62,63.9l-7.7,1c-3.1-.1-6.3.2-9.4,0-61.4-3.6-92.8-77.7-51.8-124.3,44.2-50.3,127.6-21.6,131.5,44.6ZM96.3,45.9h-8.5v13.6l-.4.4h-16.8v9.1h7.8c1.4,0,3.4,2.5,3.4,4v38.3c-.6,4.1-6.5,2.4-9.3,2.5l-1.8,10.2h16.8l.4.4v13.9h8.5v-14.1h6.7v14.1h8.5v-13.9c1.5-.7,3.9-.5,5.7-.8,9.4-1.3,17.7-4.6,19.7-14.9,1.4-7.3.1-14.9-7-18.5s-4.4-1.4-4.6-1.9c5.6-2.9,7.6-8.2,7-14.3-.9-10.5-11.8-13.8-20.8-14.2v-14.1h-8.5v13.5l-6.7.3v-13.8Z"/>
      <path class="st2" d="M96.3,95.5c.3-.4.6-.4,1-.5,4-.5,12.6.2,16.4,1.5,8.4,2.9,9.2,12.3.7,15.7s-13,2.4-17.1,1.9-.8,0-1-.5v-18.2Z"/>
      <path class="st2" d="M96.3,86.6v-17h9.5c.9,0,4,.8,5,1.2,6.9,2.5,7.7,10.9,1.1,14s-5.6,1.8-7,1.8h-8.6Z"/>
    </g>
  </g>
</svg>