<?xml version="1.0" encoding="UTF-8"?>
<svg id="Layer_1" xmlns="http://www.w3.org/2000/svg" version="1.1" viewBox="0 0 209 186.2">
  <!-- Generator: Adobe Illustrator 29.0.0, SVG Export Plug-In . SVG Version: 2.1.0 Build 186)  -->
  <defs>
    <style>
      .st0 {
        fill: #52ae95;
      }

      .st1 {
        fill: #eeeced;
      }

      .st2 {
        fill: #fff;
      }
    </style>
  </defs>
  <rect class="st1" x="-11.9" y="-15" width="232.9" height="216.3"/>
  <g>
    <ellipse class="st2" cx="104.5" cy="93.1" rx="75" ry="74.5"/>
    <g>
      <path class="st0" d="M98.9,18.6c63.5-4,103.4,66.4,66.3,118.2-33.4,46.6-105.7,39.3-129.2-12.9C14.9,76.8,47.3,21.9,98.9,18.6ZM137.3,58.4h-65.8v12.4h24.6v8.6c-5.5.2-11.2.7-16.6,1.7s-12.6,2.8-13.3,6.8-.3,9.4.2,10.8c.7,2.3,6.2,4.3,8.5,5,6.8,2.1,14.3,2.7,21.3,3.1v21h16.6v-21c7.1-.4,14.6-.8,21.4-2.7s8.9-2.7,9.3-6.4.3-8.3,0-9.8c-.7-3.3-10.6-5.8-13.6-6.5-5.6-1.2-11.3-1.8-17-2v-8.6h24.6v-12.4Z"/>
      <path class="st0" d="M96.1,85.8v8.9h16.6v-8.3c6.9.5,13.9,1.1,20.6,2.9s6,1.8,8.2,3.7c.3,2-10,4.7-11.8,5.1-13.5,3-49.7,4.2-61.1-3.7-2.3-1.6,0-2.5,1.9-3.4,7.5-3.7,17.5-4.5,25.7-5.1Z"/>
    </g>
  </g>
</svg>